<svg xmlns="http://www.w3.org/2000/svg" xmlns:xlink="http://www.w3.org/1999/xlink" width="500" zoomAndPan="magnify" viewBox="0 0 375 374.999991" height="500" preserveAspectRatio="xMidYMid meet" version="1.0"><defs><g/><clipPath id="1a51bfab39"><path d="M 54.5 129.496094 L 170.75 129.496094 L 170.75 245.746094 L 54.5 245.746094 Z M 54.5 129.496094 " clip-rule="nonzero"/></clipPath></defs><g clip-path="url(#1a51bfab39)"><path fill="#eff1f3" d="M 56.785156 130.609375 C 58.0625 129.613281 59.726562 129.261719 61.296875 129.652344 L 166.5 155.953125 C 168.84375 156.539062 170.484375 158.644531 170.484375 161.058594 L 170.484375 213.660156 C 170.484375 216.074219 168.84375 218.175781 166.5 218.761719 L 61.296875 245.0625 C 59.726562 245.457031 58.0625 245.101562 56.785156 244.105469 C 55.507812 243.109375 54.761719 241.578125 54.761719 239.960938 L 54.761719 134.757812 C 54.761719 133.136719 55.507812 131.605469 56.785156 130.609375 Z M 65.28125 141.492188 L 65.28125 233.222656 L 159.964844 209.550781 L 159.964844 165.164062 Z M 65.28125 141.492188 " fill-opacity="1" fill-rule="evenodd"/></g><g fill="#eff1f3" fill-opacity="1"><g transform="translate(181.835179, 201.609889)"><g><path d="M 3.953125 0 C 3.671875 0 3.421875 -0.101562 3.203125 -0.3125 C 2.992188 -0.53125 2.890625 -0.78125 2.890625 -1.0625 L 2.890625 -28.625 C 2.890625 -28.9375 2.988281 -29.195312 3.1875 -29.40625 C 3.382812 -29.625 3.640625 -29.734375 3.953125 -29.734375 L 15.625 -29.734375 C 19.363281 -29.734375 22.285156 -28.878906 24.390625 -27.171875 C 26.503906 -25.472656 27.5625 -23.082031 27.5625 -20 C 27.5625 -18.019531 27.097656 -16.335938 26.171875 -14.953125 C 25.253906 -13.566406 23.988281 -12.488281 22.375 -11.71875 L 28.109375 -1.359375 C 28.191406 -1.191406 28.234375 -1.035156 28.234375 -0.890625 C 28.234375 -0.660156 28.148438 -0.453125 27.984375 -0.265625 C 27.816406 -0.0859375 27.601562 0 27.34375 0 L 21.359375 0 C 20.535156 0 19.957031 -0.378906 19.625 -1.140625 L 14.953125 -10.359375 L 10.875 -10.359375 L 10.875 -1.0625 C 10.875 -0.75 10.765625 -0.492188 10.546875 -0.296875 C 10.335938 -0.0976562 10.078125 0 9.765625 0 Z M 15.59375 -16.609375 C 16.800781 -16.609375 17.722656 -16.910156 18.359375 -17.515625 C 19.003906 -18.128906 19.328125 -18.972656 19.328125 -20.046875 C 19.328125 -21.117188 19.003906 -21.976562 18.359375 -22.625 C 17.722656 -23.28125 16.800781 -23.609375 15.59375 -23.609375 L 10.875 -23.609375 L 10.875 -16.609375 Z M 15.59375 -16.609375 "/></g></g></g><g fill="#eff1f3" fill-opacity="1"><g transform="translate(212.20047, 201.609889)"><g><path d="M 13.03125 0.421875 C 9.46875 0.421875 6.726562 -0.40625 4.8125 -2.0625 C 2.90625 -3.71875 1.867188 -6.070312 1.703125 -9.125 C 1.671875 -9.5 1.65625 -10.140625 1.65625 -11.046875 C 1.65625 -11.953125 1.671875 -12.585938 1.703125 -12.953125 C 1.867188 -15.953125 2.9375 -18.296875 4.90625 -19.984375 C 6.875 -21.671875 9.582031 -22.515625 13.03125 -22.515625 C 16.488281 -22.515625 19.203125 -21.671875 21.171875 -19.984375 C 23.140625 -18.296875 24.207031 -15.953125 24.375 -12.953125 C 24.4375 -12.210938 24.46875 -11.578125 24.46875 -11.046875 C 24.46875 -10.503906 24.4375 -9.863281 24.375 -9.125 C 24.207031 -6.070312 23.164062 -3.71875 21.25 -2.0625 C 19.34375 -0.40625 16.601562 0.421875 13.03125 0.421875 Z M 13.03125 -4.921875 C 14.195312 -4.921875 15.0625 -5.28125 15.625 -6 C 16.195312 -6.726562 16.523438 -7.84375 16.609375 -9.34375 C 16.628906 -9.625 16.640625 -10.191406 16.640625 -11.046875 C 16.640625 -11.890625 16.628906 -12.453125 16.609375 -12.734375 C 16.523438 -14.210938 16.195312 -15.316406 15.625 -16.046875 C 15.0625 -16.785156 14.195312 -17.15625 13.03125 -17.15625 C 11.875 -17.15625 11.007812 -16.785156 10.4375 -16.046875 C 9.875 -15.316406 9.550781 -14.210938 9.46875 -12.734375 L 9.421875 -11.046875 L 9.46875 -9.34375 C 9.550781 -7.84375 9.875 -6.726562 10.4375 -6 C 11.007812 -5.28125 11.875 -4.921875 13.03125 -4.921875 Z M 13.03125 -4.921875 "/></g></g></g><g fill="#eff1f3" fill-opacity="1"><g transform="translate(239.125804, 201.609889)"><g><path d="M 13.03125 0.421875 C 9.46875 0.421875 6.726562 -0.40625 4.8125 -2.0625 C 2.90625 -3.71875 1.867188 -6.070312 1.703125 -9.125 C 1.671875 -9.5 1.65625 -10.140625 1.65625 -11.046875 C 1.65625 -11.953125 1.671875 -12.585938 1.703125 -12.953125 C 1.867188 -15.953125 2.9375 -18.296875 4.90625 -19.984375 C 6.875 -21.671875 9.582031 -22.515625 13.03125 -22.515625 C 16.488281 -22.515625 19.203125 -21.671875 21.171875 -19.984375 C 23.140625 -18.296875 24.207031 -15.953125 24.375 -12.953125 C 24.4375 -12.210938 24.46875 -11.578125 24.46875 -11.046875 C 24.46875 -10.503906 24.4375 -9.863281 24.375 -9.125 C 24.207031 -6.070312 23.164062 -3.71875 21.25 -2.0625 C 19.34375 -0.40625 16.601562 0.421875 13.03125 0.421875 Z M 13.03125 -4.921875 C 14.195312 -4.921875 15.0625 -5.28125 15.625 -6 C 16.195312 -6.726562 16.523438 -7.84375 16.609375 -9.34375 C 16.628906 -9.625 16.640625 -10.191406 16.640625 -11.046875 C 16.640625 -11.890625 16.628906 -12.453125 16.609375 -12.734375 C 16.523438 -14.210938 16.195312 -15.316406 15.625 -16.046875 C 15.0625 -16.785156 14.195312 -17.15625 13.03125 -17.15625 C 11.875 -17.15625 11.007812 -16.785156 10.4375 -16.046875 C 9.875 -15.316406 9.550781 -14.210938 9.46875 -12.734375 L 9.421875 -11.046875 L 9.46875 -9.34375 C 9.550781 -7.84375 9.875 -6.726562 10.4375 -6 C 11.007812 -5.28125 11.875 -4.921875 13.03125 -4.921875 Z M 13.03125 -4.921875 "/></g></g></g><g fill="#eff1f3" fill-opacity="1"><g transform="translate(266.051135, 201.609889)"><g><path d="M 3.484375 0 C 3.203125 0 2.953125 -0.101562 2.734375 -0.3125 C 2.523438 -0.53125 2.421875 -0.78125 2.421875 -1.0625 L 2.421875 -21.015625 C 2.421875 -21.328125 2.523438 -21.582031 2.734375 -21.78125 C 2.953125 -21.976562 3.203125 -22.078125 3.484375 -22.078125 L 8.40625 -22.078125 C 8.71875 -22.078125 8.972656 -21.976562 9.171875 -21.78125 C 9.367188 -21.582031 9.46875 -21.328125 9.46875 -21.015625 L 9.46875 -19.578125 C 10.144531 -20.398438 11.019531 -21.09375 12.09375 -21.65625 C 13.175781 -22.226562 14.394531 -22.515625 15.75 -22.515625 C 18.863281 -22.515625 21.003906 -21.296875 22.171875 -18.859375 C 22.847656 -19.929688 23.796875 -20.804688 25.015625 -21.484375 C 26.234375 -22.171875 27.535156 -22.515625 28.921875 -22.515625 C 31.242188 -22.515625 33.132812 -21.726562 34.59375 -20.15625 C 36.050781 -18.582031 36.78125 -16.238281 36.78125 -13.125 L 36.78125 -1.0625 C 36.78125 -0.78125 36.679688 -0.53125 36.484375 -0.3125 C 36.285156 -0.101562 36.03125 0 35.71875 0 L 30.5 0 C 30.1875 0 29.921875 -0.0976562 29.703125 -0.296875 C 29.492188 -0.492188 29.390625 -0.75 29.390625 -1.0625 L 29.390625 -12.828125 C 29.390625 -14.128906 29.113281 -15.082031 28.5625 -15.6875 C 28.007812 -16.300781 27.265625 -16.609375 26.328125 -16.609375 C 25.453125 -16.609375 24.738281 -16.300781 24.1875 -15.6875 C 23.632812 -15.082031 23.359375 -14.128906 23.359375 -12.828125 L 23.359375 -1.0625 C 23.359375 -0.78125 23.257812 -0.53125 23.0625 -0.3125 C 22.863281 -0.101562 22.609375 0 22.296875 0 L 17.078125 0 C 16.765625 0 16.5 -0.0976562 16.28125 -0.296875 C 16.070312 -0.492188 15.96875 -0.75 15.96875 -1.0625 L 15.96875 -12.828125 C 15.96875 -14.128906 15.679688 -15.082031 15.109375 -15.6875 C 14.546875 -16.300781 13.8125 -16.609375 12.90625 -16.609375 C 12.03125 -16.609375 11.304688 -16.300781 10.734375 -15.6875 C 10.171875 -15.082031 9.890625 -14.144531 9.890625 -12.875 L 9.890625 -1.0625 C 9.890625 -0.78125 9.789062 -0.53125 9.59375 -0.3125 C 9.394531 -0.101562 9.140625 0 8.828125 0 Z M 3.484375 0 "/></g></g></g><g fill="#f0ff16" fill-opacity="1"><g transform="translate(71.606374, 201.609889)"><g><path d="M 10.53125 0 C 10.21875 0 9.953125 -0.0976562 9.734375 -0.296875 C 9.523438 -0.492188 9.421875 -0.75 9.421875 -1.0625 L 9.421875 -22.8125 L 1.953125 -22.8125 C 1.640625 -22.8125 1.375 -22.910156 1.15625 -23.109375 C 0.945312 -23.304688 0.84375 -23.5625 0.84375 -23.875 L 0.84375 -28.625 C 0.84375 -28.9375 0.945312 -29.195312 1.15625 -29.40625 C 1.375 -29.625 1.640625 -29.734375 1.953125 -29.734375 L 25.015625 -29.734375 C 25.328125 -29.734375 25.585938 -29.625 25.796875 -29.40625 C 26.015625 -29.195312 26.125 -28.9375 26.125 -28.625 L 26.125 -23.875 C 26.125 -23.5625 26.015625 -23.304688 25.796875 -23.109375 C 25.585938 -22.910156 25.328125 -22.8125 25.015625 -22.8125 L 17.546875 -22.8125 L 17.546875 -1.0625 C 17.546875 -0.75 17.4375 -0.492188 17.21875 -0.296875 C 17.007812 -0.0976562 16.75 0 16.4375 0 Z M 10.53125 0 "/></g></g></g><g fill="#f0ff16" fill-opacity="1"><g transform="translate(99.423545, 201.609889)"><g><path d="M 3.53125 0 C 3.21875 0 2.953125 -0.0976562 2.734375 -0.296875 C 2.523438 -0.492188 2.421875 -0.75 2.421875 -1.0625 L 2.421875 -29.09375 C 2.421875 -29.40625 2.523438 -29.660156 2.734375 -29.859375 C 2.953125 -30.054688 3.21875 -30.15625 3.53125 -30.15625 L 9.265625 -30.15625 C 9.566406 -30.15625 9.820312 -30.054688 10.03125 -29.859375 C 10.25 -29.660156 10.359375 -29.40625 10.359375 -29.09375 L 10.359375 -19.625 C 12.003906 -21.550781 14.226562 -22.515625 17.03125 -22.515625 C 18.644531 -22.515625 20.101562 -22.144531 21.40625 -21.40625 C 22.707031 -20.664062 23.722656 -19.570312 24.453125 -18.125 C 25.191406 -16.6875 25.5625 -14.945312 25.5625 -12.90625 L 25.5625 -1.0625 C 25.5625 -0.75 25.453125 -0.492188 25.234375 -0.296875 C 25.023438 -0.0976562 24.769531 0 24.46875 0 L 18.6875 0 C 18.40625 0 18.15625 -0.101562 17.9375 -0.3125 C 17.726562 -0.53125 17.625 -0.78125 17.625 -1.0625 L 17.625 -12.65625 C 17.625 -13.90625 17.3125 -14.875 16.6875 -15.5625 C 16.0625 -16.257812 15.171875 -16.609375 14.015625 -16.609375 C 12.878906 -16.609375 11.984375 -16.257812 11.328125 -15.5625 C 10.679688 -14.875 10.359375 -13.90625 10.359375 -12.65625 L 10.359375 -1.0625 C 10.359375 -0.75 10.25 -0.492188 10.03125 -0.296875 C 9.820312 -0.0976562 9.566406 0 9.265625 0 Z M 3.53125 0 "/></g></g></g><g fill="#f0ff16" fill-opacity="1"><g transform="translate(128.047629, 201.609889)"><g><path d="M 12.78125 0.421875 C 9.332031 0.421875 6.613281 -0.503906 4.625 -2.359375 C 2.644531 -4.210938 1.628906 -6.910156 1.578125 -10.453125 L 1.578125 -11.765625 C 1.679688 -15.128906 2.722656 -17.757812 4.703125 -19.65625 C 6.691406 -21.5625 9.367188 -22.515625 12.734375 -22.515625 C 15.171875 -22.515625 17.234375 -22.023438 18.921875 -21.046875 C 20.609375 -20.066406 21.867188 -18.71875 22.703125 -17 C 23.535156 -15.289062 23.953125 -13.347656 23.953125 -11.171875 L 23.953125 -10.109375 C 23.953125 -9.796875 23.84375 -9.53125 23.625 -9.3125 C 23.414062 -9.101562 23.15625 -9 22.84375 -9 L 9.390625 -9 L 9.390625 -8.75 C 9.410156 -7.476562 9.703125 -6.453125 10.265625 -5.671875 C 10.835938 -4.890625 11.648438 -4.5 12.703125 -4.5 C 13.378906 -4.5 13.921875 -4.632812 14.328125 -4.90625 C 14.742188 -5.175781 15.132812 -5.523438 15.5 -5.953125 C 15.757812 -6.234375 15.960938 -6.40625 16.109375 -6.46875 C 16.265625 -6.539062 16.515625 -6.578125 16.859375 -6.578125 L 22.421875 -6.578125 C 22.679688 -6.578125 22.898438 -6.5 23.078125 -6.34375 C 23.265625 -6.1875 23.359375 -6 23.359375 -5.78125 C 23.359375 -5.039062 22.941406 -4.175781 22.109375 -3.1875 C 21.273438 -2.195312 20.054688 -1.347656 18.453125 -0.640625 C 16.847656 0.0664062 14.957031 0.421875 12.78125 0.421875 Z M 16.140625 -13.328125 L 16.140625 -13.421875 C 16.140625 -14.773438 15.84375 -15.828125 15.25 -16.578125 C 14.65625 -17.328125 13.816406 -17.703125 12.734375 -17.703125 C 11.660156 -17.703125 10.832031 -17.328125 10.25 -16.578125 C 9.675781 -15.828125 9.390625 -14.773438 9.390625 -13.421875 L 9.390625 -13.328125 Z M 16.140625 -13.328125 "/></g></g></g></svg>